<svg width="24" height="24" viewBox="0 0 24 24" fill="none" xmlns="http://www.w3.org/2000/svg">
<mask id="mask0_6226_906" style="mask-type:alpha" maskUnits="userSpaceOnUse" x="0" y="0" width="24" height="24">
<rect width="24" height="24" fill="#D9D9D9"/>
</mask>
<g mask="url(#mask0_6226_906)">
<path d="M18.8638 10.6291H18.2999V10.6H11.9999V13.4H15.956C15.3788 15.03 13.828 16.2 11.9999 16.2C9.68049 16.2 7.79994 14.3195 7.79994 12C7.79994 9.68058 9.68049 7.80003 11.9999 7.80003C13.0706 7.80003 14.0446 8.20393 14.7863 8.86368L16.7662 6.88373C15.516 5.71858 13.8437 5.00003 11.9999 5.00003C8.13419 5.00003 4.99994 8.13428 4.99994 12C4.99994 15.8658 8.13419 19 11.9999 19C15.8657 19 18.9999 15.8658 18.9999 12C18.9999 11.5307 18.9516 11.0725 18.8638 10.6291Z" fill="#27272A"/>
<path d="M5.80713 8.74188L8.10698 10.4285C8.72928 8.88783 10.2364 7.80003 12 7.80003C13.0707 7.80003 14.0447 8.20393 14.7864 8.86368L16.7663 6.88373C15.5161 5.71858 13.8438 5.00003 12 5.00003C9.31133 5.00003 6.97963 6.51798 5.80713 8.74188Z" fill="#27272A"/>
<path d="M12.0001 19C13.8082 19 15.4511 18.308 16.6932 17.1828L14.5267 15.3495C13.8239 15.8818 12.9503 16.2 12.0001 16.2C10.1794 16.2 8.63341 15.039 8.05101 13.4189L5.76831 15.1776C6.92681 17.4446 9.27951 19 12.0001 19Z" fill="#27272A"/>
<path d="M18.8638 10.6291H18.2999V10.6H11.9999V13.4H15.956C15.6788 14.183 15.1751 14.8581 14.5255 15.3499C14.5259 15.3495 14.5262 15.3495 14.5266 15.3492L16.6931 17.1825C16.5398 17.3218 18.9999 15.5 18.9999 12C18.9999 11.5307 18.9516 11.0725 18.8638 10.6291Z" fill="#27272A"/>
</g>
</svg>
