<svg width="24" height="24" viewBox="0 0 24 24" fill="none" xmlns="http://www.w3.org/2000/svg">
<mask id="mask0_6226_914" style="mask-type:alpha" maskUnits="userSpaceOnUse" x="0" y="0" width="24" height="24">
<rect width="24" height="24" fill="#D9D9D9"/>
</mask>
<g mask="url(#mask0_6226_914)">
<path fill-rule="evenodd" clip-rule="evenodd" d="M18.9999 19H16.1999V14.1007C16.1999 12.7567 15.607 12.0069 14.5437 12.0069C13.3866 12.0069 12.6999 12.7882 12.6999 14.1007V19H9.89994V9.90003H12.6999V10.9234C12.6999 10.9234 13.5784 9.38187 15.558 9.38187C17.5383 9.38187 18.9999 10.5903 18.9999 13.0907V19ZM6.70934 8.44466C5.76504 8.44466 4.99994 7.6733 4.99994 6.722C4.99994 5.7714 5.76504 5.00003 6.70934 5.00003C7.65294 5.00003 8.41804 5.7714 8.41804 6.722C8.41874 7.6733 7.65294 8.44466 6.70934 8.44466ZM4.99994 19H8.49994V9.90003H4.99994V19Z" fill="#27272A"/>
</g>
</svg>
