<svg width="24" height="24" viewBox="0 0 24 24" fill="none" xmlns="http://www.w3.org/2000/svg">
<path d="M11.8289 16.75H13.1711V13.1711H16.75V11.8289H13.1711V8.25H11.8289V11.8289H8.25V13.1711H11.8289V16.75ZM12.5016 21C11.3259 21 10.2208 20.7769 9.18634 20.3307C8.15188 19.8846 7.25207 19.279 6.48692 18.5142C5.72177 17.7493 5.11596 16.8499 4.66949 15.8159C4.22316 14.7819 4 13.6771 4 12.5016C4 11.3259 4.22309 10.2208 4.66926 9.18634C5.11544 8.15188 5.72095 7.25207 6.4858 6.48692C7.25065 5.72177 8.15009 5.11596 9.18411 4.66949C10.2181 4.22316 11.3229 4 12.4984 4C13.6741 4 14.7792 4.22309 15.8137 4.66926C16.8481 5.11544 17.7479 5.72095 18.5131 6.4858C19.2782 7.25065 19.884 8.15009 20.3305 9.18411C20.7768 10.2181 21 11.3229 21 12.4984C21 13.6741 20.7769 14.7792 20.3307 15.8137C19.8846 16.8481 19.279 17.7479 18.5142 18.5131C17.7493 19.2782 16.8499 19.884 15.8159 20.3305C14.7819 20.7768 13.6771 21 12.5016 21Z" fill="#27272A"/>
</svg>
