<svg width="24" height="24" viewBox="0 0 24 24" fill="none" xmlns="http://www.w3.org/2000/svg">
<mask id="mask0_998_2449" style="mask-type:alpha" maskUnits="userSpaceOnUse" x="0" y="0" width="24" height="24">
<rect width="24" height="24" fill="#D9D9D9"/>
</mask>
<g mask="url(#mask0_998_2449)">
<path d="M12.8182 12L10.3787 14.4396L11.1868 15.2477L14.4345 12L11.1868 8.75231L10.3787 9.56044L12.8182 12ZM12.0015 20C10.905 20 9.87048 19.7918 8.89802 19.3754C7.92557 18.959 7.07443 18.386 6.34461 17.6565C5.6148 16.927 5.04154 16.0762 4.62484 15.1042C4.20828 14.1322 4 13.0979 4 12.0015C4 10.8903 4.20821 9.85216 4.62462 8.88703C5.04103 7.9219 5.61399 7.07443 6.34352 6.34461C7.07304 5.6148 7.92381 5.04154 8.89582 4.62484C9.86784 4.20828 10.9021 4 11.9985 4C13.1097 4 14.1478 4.2082 15.113 4.62461C16.0781 5.04103 16.9256 5.61399 17.6554 6.34352C18.3852 7.07304 18.9585 7.92015 19.3752 8.88484C19.7917 9.84952 20 10.8874 20 11.9985C20 13.095 19.7918 14.1295 19.3754 15.102C18.959 16.0744 18.386 16.9256 17.6565 17.6554C16.927 18.3852 16.0799 18.9585 15.1152 19.3752C14.1505 19.7917 13.1126 20 12.0015 20Z" fill="#27272A"/>
</g>
</svg>
