<svg width="24" height="24" viewBox="0 0 24 24" fill="none" xmlns="http://www.w3.org/2000/svg">
<mask id="mask0_6226_944" style="mask-type:alpha" maskUnits="userSpaceOnUse" x="0" y="0" width="24" height="24">
<rect width="24" height="24" fill="#D9D9D9"/>
</mask>
<g mask="url(#mask0_6226_944)">
<path d="M6.26926 4.504H17.573V15.5037L10.7385 22.3L10.3425 22.1537C10.0552 21.9499 9.84393 21.6958 9.70876 21.3913C9.57343 21.0868 9.54743 20.7756 9.63076 20.4577V20.5537L10.5425 15.5037H3.30776C2.86543 15.5037 2.48693 15.3464 2.17226 15.0317C1.85743 14.7169 1.70001 14.3384 1.70001 13.8962V12.8557C1.70001 12.7352 1.71093 12.6272 1.73276 12.5317C1.7546 12.4362 1.78726 12.3366 1.83076 12.2327L4.67126 5.54625C4.7981 5.22575 5.00926 4.97192 5.30476 4.78475C5.60026 4.59758 5.92176 4.504 6.26926 4.504ZM18.873 15.5037V4.504H22.3V15.5037H18.873Z" fill="#FFE7D3"/>
</g>
</svg>
