<svg width="24" height="24" viewBox="0 0 24 24" fill="none" xmlns="http://www.w3.org/2000/svg">
<mask id="mask0_6226_926" style="mask-type:alpha" maskUnits="userSpaceOnUse" x="0" y="0" width="24" height="24">
<rect width="24" height="24" fill="#D9D9D9"/>
</mask>
<g mask="url(#mask0_6226_926)">
<path d="M17.7308 19.9H6.42701V8.9L13.2615 2.104L13.6575 2.25C13.9448 2.45384 14.1561 2.708 14.2913 3.0125C14.4266 3.317 14.4526 3.62825 14.3693 3.94625V3.85L13.4575 8.9H20.6923C21.1346 8.9 21.5131 9.05742 21.8278 9.37226C22.1426 9.68692 22.3 10.0654 22.3 10.5078V11.548C22.3 11.6685 22.2891 11.7765 22.2673 11.872C22.2454 11.9675 22.2128 12.0673 22.1693 12.1713L19.3288 18.8578C19.1853 19.1783 18.9699 19.4321 18.6828 19.6193C18.3956 19.8064 18.0783 19.9 17.7308 19.9ZM5.12701 8.9V19.9H1.70001V8.9H5.12701Z" fill="#36660E"/>
</g>
</svg>
