<svg width="24" height="24" viewBox="0 0 24 24" fill="none" xmlns="http://www.w3.org/2000/svg">
<mask id="mask0_6226_950" style="mask-type:alpha" maskUnits="userSpaceOnUse" x="0" y="0" width="24" height="24">
<rect width="24" height="24" fill="#D9D9D9"/>
</mask>
<g mask="url(#mask0_6226_950)">
<path d="M12.0343 16.9365C12.2706 16.9365 12.4716 16.8536 12.6374 16.6877C12.8031 16.5217 12.8859 16.3204 12.8859 16.084C12.8859 15.8476 12.8029 15.6466 12.6369 15.4809C12.4709 15.3153 12.2697 15.2325 12.0334 15.2325C11.7971 15.2325 11.596 15.3155 11.4303 15.4815C11.2646 15.6475 11.1818 15.8487 11.1818 16.0851C11.1818 16.3214 11.2648 16.5224 11.4308 16.6881C11.5968 16.8537 11.7979 16.9365 12.0343 16.9365ZM11.4116 13.8105H12.6273C12.6385 13.3193 12.6946 12.9699 12.7954 12.7624C12.8963 12.5551 13.0961 12.3038 13.3947 12.0086C13.9133 11.5047 14.2643 11.0853 14.4479 10.7505C14.6316 10.4159 14.7235 10.0549 14.7235 9.66769C14.7235 8.92557 14.4773 8.30879 13.9848 7.81736C13.4922 7.32608 12.8599 7.08044 12.0879 7.08044C11.4421 7.08044 10.8642 7.25429 10.3543 7.60198C9.84425 7.94967 9.47934 8.41824 9.25956 9.00769L10.3668 9.48264C10.5325 9.04425 10.7596 8.72696 11.0481 8.53077C11.3366 8.33473 11.6629 8.2367 12.027 8.2367C12.488 8.2367 12.8574 8.36799 13.1352 8.63055C13.4131 8.89326 13.5521 9.23194 13.5521 9.64659C13.5521 9.9893 13.4413 10.2883 13.2198 10.5435C12.9984 10.7988 12.7485 11.0566 12.4701 11.3169C12.0248 11.7351 11.7371 12.1029 11.607 12.4202C11.4768 12.7374 11.4116 13.2009 11.4116 13.8105ZM12.0015 20C10.905 20 9.87048 19.7918 8.89802 19.3754C7.92557 18.959 7.07443 18.386 6.34462 17.6565C5.6148 16.927 5.04154 16.0762 4.62483 15.1042C4.20828 14.1322 4 13.0979 4 12.0015C4 10.8903 4.20821 9.85216 4.62462 8.88703C5.04103 7.9219 5.61399 7.07443 6.34352 6.34462C7.07304 5.6148 7.92381 5.04154 8.89582 4.62483C9.86784 4.20828 10.9021 4 11.9985 4C13.1097 4 14.1478 4.2082 15.113 4.62461C16.0781 5.04103 16.9256 5.61399 17.6554 6.34352C18.3852 7.07304 18.9585 7.92015 19.3752 8.88484C19.7917 9.84952 20 10.8874 20 11.9985C20 13.095 19.7918 14.1295 19.3754 15.102C18.959 16.0744 18.386 16.9256 17.6565 17.6554C16.927 18.3852 16.0799 18.9585 15.1152 19.3752C14.1505 19.7917 13.1126 20 12.0015 20Z" fill="#401E08"/>
</g>
</svg>
